<svg id="Capa_1" enable-background="new 0 0 512 512" height="136" viewBox="0 0 512 512" width="136" xmlns="http://www.w3.org/2000/svg"><g><g><path d="m481.095 512h-450.19c-17.068 0-30.905-13.837-30.905-30.905v-295.662l15.453-61.811c0-17.069 13.837-15.453 30.905-15.453h434.736c17.069 0 15.453-1.616 15.453 15.453l15.453 61.811v295.662c0 17.068-13.837 30.905-30.905 30.905z" fill="#eaf6ff"/><path d="m481.095 185.433v295.662c0 17.069-13.837 30.905-30.905 30.905h30.905c17.068 0 30.905-13.837 30.905-30.905v-295.662z" fill="#d8ecfe"/><path d="m481.095 92.716h-450.19c-17.068 0-30.905 13.837-30.905 30.906v61.811h512v-61.811c0-17.069-13.837-30.906-30.905-30.906z" fill="#3d6d93"/><path d="m481.095 92.716h-30.905c17.069 0 30.905 13.837 30.905 30.905v61.811h30.905v-61.811c0-17.068-13.837-30.905-30.905-30.905z" fill="#335e80"/><circle cx="48.549" cy="141.06" fill="#f58a97" r="7.726"/><circle cx="94.908" cy="141.06" fill="#ffe179" r="7.726"/><circle cx="141.266" cy="141.06" fill="#aee69c" r="7.726"/></g><g><path d="m449.159 466.157v-31.936c0-3.983-3.229-7.211-7.211-7.211h-70.052l-15.453 46.358h85.505c3.982 0 7.211-3.228 7.211-7.211z" fill="#aee69c"/><path d="m441.948 427.01h-30.905c3.983 0 7.211 3.229 7.211 7.211v31.936c0 3.983-3.229 7.211-7.211 7.211h30.905c3.983 0 7.211-3.229 7.211-7.211v-31.936c0-3.982-3.229-7.211-7.211-7.211z" fill="#89daa4"/><path d="m356.443 473.368 15.452-46.358h-77.263l-15.453 46.358z" fill="#ffe179"/><path d="m279.179 473.368 15.453-46.358h-77.264l-15.453 46.358z" fill="#aee69c"/><path d="m201.915 473.368 15.453-46.358h-77.263l-15.453 46.358z" fill="#ffe179"/><path d="m124.652 473.368 15.453-46.358h-70.053c-3.983 0-7.211 3.229-7.211 7.211v31.936c0 3.983 3.229 7.211 7.211 7.211z" fill="#aee69c"/></g><g><g><path d="m332.984 368.898h-153.968c-12.891 0-23.341-10.45-23.341-23.341v-90.424c0-12.891 10.45-23.341 23.341-23.341h153.968c12.891 0 23.341 10.45 23.341 23.341v90.424c0 12.89-10.45 23.341-23.341 23.341z" fill="#f58a97"/><path d="m332.984 231.791h-30.905c12.891 0 23.341 10.45 23.341 23.341v90.424c0 12.891-10.45 23.341-23.341 23.341h30.905c12.891 0 23.341-10.45 23.341-23.341v-90.424c0-12.891-10.45-23.341-23.341-23.341z" fill="#f07281"/><path d="m279.132 304.282-40.976 27.564c-3.149 2.118-7.385-.14-7.385-3.938v-55.127c0-3.798 4.236-6.056 7.385-3.938l40.976 27.564c2.795 1.879 2.795 5.995 0 7.875z" fill="#fff"/></g></g><g><circle cx="256" cy="76.748" fill="#aee69c" r="76.748"/><path d="m256 0c-5.293 0-10.461.536-15.453 1.557 34.98 7.151 61.296 38.098 61.296 75.192s-26.315 68.041-61.296 75.192c4.992 1.02 10.159 1.557 15.453 1.557 42.387 0 76.749-34.361 76.749-76.748s-34.362-76.75-76.749-76.75z" fill="#89daa4"/><path d="m286.773 54.364-20.21-20.212c-5.815-5.82-15.315-5.815-21.126.002l-20.209 20.21c-3.017 3.017-3.017 7.909.001 10.927 3.016 3.016 7.908 3.017 10.927-.001l12.119-12.119v65.808c0 4.268 3.459 7.726 7.726 7.726s7.726-3.459 7.726-7.726v-65.809l12.119 12.119c1.509 1.509 3.486 2.264 5.464 2.264 1.977 0 3.955-.755 5.463-2.263 3.017-3.016 3.017-7.909 0-10.926z" fill="#fff"/></g></g></svg>